# xmcd
#
# Track frame offsets: 
#        150
#        16870
#        32453
#        43151
#        58012
#        75296
#        89046
#        102302
#        117298
#        130268
#        144015
#        159539
#        170882
#
# Disc length: 2430 seconds
#
# Revision: 0
# Processed by: cddbd v1.5.2PL0 Copyright (c) Steve Scherf et al.
# Submitted via: ExactAudioCopy v1.0b3
#
DISCID=a3097c0d
DTITLE=Billy Yates - Harmony Man
DYEAR=2005
DGENRE=Country
TTITLE0=Harmony Man
TTITLE1=I Don't Think You're Pretty
TTITLE2=Forever For A While
TTITLE3=Her Only Downfall
TTITLE4=Alone Some
TTITLE5=Brothers
TTITLE6=The Circus Is Over
TTITLE7=I Wouldn't Want To Be Her Man
TTITLE8=Teach Me Tonight
TTITLE9=The Perfect Woman
TTITLE10=Every Man
TTITLE11=No Part Of
TTITLE12=Talk About Sufferin'
EXTD=
EXTT0=
EXTT1=
EXTT2=
EXTT3=
EXTT4=
EXTT5=
EXTT6=
EXTT7=
EXTT8=
EXTT9=
EXTT10=
EXTT11=
EXTT12=
PLAYORDER=
